<svg width="150" height="150" viewBox="0 0 150 150" fill="none" xmlns="http://www.w3.org/2000/svg">
<path d="M75 0L139.952 37.5V112.5L75 150L10.0481 112.5V37.5L75 0Z" fill="#7E9E86"/>
<path d="M24.4045 45.7887L75 16.5774L125.595 45.7887V104.211L75 133.423L24.4045 104.211V45.7887Z" stroke="white"/>
<path d="M70.75 80C73.0625 80 75 81.9375 75 84.25V84.75C75 87.125 73.0625 89 70.75 89H67.5C67.1875 89 67 88.8125 67 88.5C67 88.25 67.1875 88 67.5 88H70.75C72.5 88 74 86.5625 74 84.75V84.25C74 82.5 72.5 81 70.75 81H59.5C59.1875 81 59 80.8125 59 80.5C59 80.25 59.1875 80 59.5 80H70.75ZM59.5 70C59.1875 70 59 69.8125 59 69.5C59 69.25 59.1875 69 59.5 69H82.75C84.5 69 86 67.5625 86 65.75V65.25C86 63.5 84.5 62 82.75 62H79.5C79.1875 62 79 61.8125 79 61.5C79 61.25 79.1875 61 79.5 61H82.75C85.0625 61 87 62.9375 87 65.25V65.75C87 68.125 85.0625 70 82.75 70H59.5ZM86.75 74.5C89.0625 74.5 91 76.4375 91 78.75C91 81.125 89.0625 83 86.75 83H83.5C83.1875 83 83 82.8125 83 82.5C83 82.25 83.1875 82 83.5 82H86.75C88.5 82 90 80.5625 90 78.75C90 77 88.5 75.5 86.75 75.5H59.5C59.1875 75.5 59 75.3125 59 75C59 74.75 59.1875 74.5 59.5 74.5H86.75Z" fill="white"/>
</svg>
