<svg width="244" height="117" viewBox="0 0 244 117" fill="none" xmlns="http://www.w3.org/2000/svg">
<g clip-path="url(#clip0_45_2)">
<path d="M79.33 71.52H66.12V70.54C67.23 70.43 68.03 70.03 68.53 69.34C69.03 68.65 69.28 67.53 69.28 65.97V47.19C69.28 45.45 68.98 44.23 68.38 43.53C67.78 42.83 66.7 42.48 65.14 42.48C64.51 42.48 63.87 42.54 63.2 42.67C62.53 42.79 61.72 43 60.75 43.3C59.19 43.8 57.08 44.65 54.44 45.85V66.01C54.44 66.8 54.5 67.48 54.61 68.05C54.72 68.62 54.91 69.07 55.16 69.41C55.61 70.09 56.42 70.47 57.59 70.56V71.54H44.29V70.56C45.34 70.56 46.14 70.18 46.68 69.41C47.22 68.73 47.49 67.6 47.49 66.02V47.21C47.49 45.42 47.19 44.19 46.59 43.51C45.99 42.83 44.93 42.49 43.39 42.49C42.2 42.49 40.76 42.75 39.09 43.27C37.41 43.79 35.25 44.65 32.61 45.85V66.01C32.61 67.62 32.84 68.75 33.31 69.4C33.78 70.06 34.6 70.44 35.76 70.55V71.53H22.51V70.55C23.56 70.55 24.33 70.15 24.81 69.36C25.35 68.68 25.62 67.56 25.62 66V47.48C25.62 46.03 25.35 44.98 24.81 44.32C24.38 43.71 23.55 43.33 22.3 43.2V42.38C24.03 42.04 25.67 41.5 27.2 40.75C28.02 40.34 28.79 39.91 29.5 39.46C30.21 39.01 30.86 38.51 31.46 37.96H32.61V44.27L34.44 43.32C41.34 39.75 46 37.96 48.42 37.96C50.35 37.96 51.84 38.4 52.87 39.27C53.91 40.14 54.43 41.4 54.43 43.05V44.3L56.22 43.35C63.12 39.76 67.8 37.96 70.24 37.96C72.03 37.96 73.46 38.52 74.54 39.64C75.62 40.76 76.16 42.28 76.16 44.2V65.99C76.16 66.78 76.22 67.46 76.33 68.03C76.44 68.6 76.63 69.05 76.88 69.39C77.36 70.16 78.16 70.54 79.27 70.54L79.31 71.52H79.33Z" fill="#231F20"/>
<path d="M116.71 69.18C116.29 69.7 115.81 70.17 115.29 70.57C114.77 70.97 114.2 71.33 113.58 71.65C112.42 72.22 111.2 72.51 109.9 72.51C108.18 72.51 106.88 72.11 106.01 71.32C105.13 70.52 104.7 69.35 104.7 67.8V67.29C103.45 68.16 102.22 68.92 101.03 69.59C99.83 70.26 98.68 70.81 97.57 71.24C95.38 72.08 93.23 72.5 91.12 72.5C88.36 72.5 86.18 71.84 84.59 70.53C83 69.22 82.2 67.48 82.2 65.3C82.2 62.58 83.7 60.2 86.71 58.14C89.71 56.08 95.71 53.59 104.71 50.67V45.65C104.71 43.61 104.25 42.04 103.34 40.93C102.37 39.89 100.99 39.37 99.2 39.37C97.52 39.37 96.24 39.72 95.36 40.42C94.42 41.01 93.55 42.45 92.76 44.76C92.45 45.6 91.86 46.35 91.01 47.03C90.16 47.6 89.23 47.88 88.23 47.88C87.23 47.88 86.32 47.59 85.58 47C84.9 46.41 84.56 45.68 84.56 44.8C84.56 42.97 85.95 41.37 88.72 40C91.49 38.63 95.01 37.95 99.27 37.95C103.53 37.95 106.83 38.66 108.73 40.07C110.63 41.48 111.59 43.79 111.59 47V66.7C111.59 67.85 111.75 68.64 112.06 69.07C112.37 69.61 112.9 69.88 113.64 69.88C114.07 69.88 114.49 69.77 114.92 69.54C115.03 69.47 115.2 69.34 115.41 69.15C115.62 68.96 115.79 68.79 115.9 68.66L116.75 69.17L116.71 69.18ZM104.69 52.22C98.84 54.12 94.82 55.9 92.63 57.58C90.44 59.25 89.35 61.17 89.35 63.34C89.35 65.13 89.94 66.58 91.11 67.71C92.28 68.84 93.82 69.41 95.74 69.41C97.14 69.41 98.59 69.05 100.09 68.33C101.59 67.61 103.13 66.48 104.7 64.94V52.23L104.69 52.22Z" fill="#231F20"/>
<path d="M144.76 41.75C144.76 42.74 144.32 43.6 143.44 44.33C142.56 45.05 141.47 45.41 140.17 45.41C139.52 45.41 138.6 45.22 137.41 44.85C136.22 44.48 135.24 44.29 134.48 44.29C133.63 44.29 132.78 44.52 131.93 44.97C131.56 45.2 131.19 45.46 130.8 45.77C130.42 46.08 129.96 46.5 129.42 47.04V65.98C129.42 66.77 129.48 67.45 129.59 68.02C129.7 68.59 129.89 69.04 130.14 69.38C130.68 70.15 131.49 70.53 132.57 70.53L132.61 71.51H119.1V70.53C120.15 70.53 120.93 70.12 121.44 69.31C121.98 68.63 122.25 67.51 122.25 65.95V47.47C122.25 46.02 121.99 44.98 121.46 44.35C120.93 43.72 120.07 43.33 118.88 43.2V42.39C120.56 42.07 122.2 41.54 123.8 40.8C124.57 40.42 125.32 39.99 126.04 39.53C126.77 39.07 127.45 38.58 128.07 38.06H129.4V44.91C131.95 42.42 134.12 40.64 135.9 39.57C137.68 38.5 139.27 37.96 140.66 37.96C141.85 37.96 142.83 38.3 143.59 38.98C144.35 39.66 144.74 40.59 144.74 41.76L144.76 41.75Z" fill="#231F20"/>
<path d="M218.45 55.16C218.45 60.21 216.75 64.36 213.36 67.61C209.96 70.87 205.68 72.5 200.51 72.5C195.34 72.5 191.06 70.89 187.66 67.66C184.26 64.44 182.57 60.27 182.57 55.15C182.57 50.03 184.27 45.92 187.66 42.73C191.06 39.54 195.34 37.94 200.51 37.94C205.68 37.94 210 39.54 213.38 42.74C216.76 45.94 218.45 50.08 218.45 55.14V55.16ZM210.27 55.43C210.27 50.02 209.46 46 207.84 43.35C206.22 40.7 203.78 39.38 200.51 39.38C197.24 39.38 194.84 40.7 193.14 43.35C191.55 45.86 190.75 49.75 190.75 55.03C190.75 60.31 191.55 64.45 193.16 67.06C194.76 69.67 197.22 70.98 200.51 70.98C203.8 70.98 206.15 69.68 207.8 67.09C209.45 64.5 210.27 60.61 210.27 55.43Z" fill="#231F20"/>
<path d="M143.59 85.94C141.97 85.49 140.3 85.11 138.69 84.57C134.8 83.27 131.09 81.6 128.54 78.45C127.15 76.74 125.51 76.12 123.35 76.15C116.08 76.24 108.81 76.27 101.54 76.36C90.79 76.5 80.04 76.55 69.29 76.87C56.83 77.23 44.38 77.79 31.93 78.38C29.15 78.51 26.4 79.08 23.64 79.46C22.69 79.59 22.19 80.09 22.32 81.42C26.65 81.42 30.95 81.37 35.24 81.42C44.83 81.55 54.42 81.73 64 81.89C79.87 82.15 95.73 82.38 111.6 82.67C115.63 82.74 119.75 82.53 123.68 83.22C132.15 84.71 139.68 88 145.44 94.05L143.7 85.79C143.7 85.79 143.63 85.87 143.58 85.93L143.59 85.94Z" fill="#231F20"/>
<path d="M181.08 85.71C180.38 80.98 177.34 77.86 172.33 76.3C167.03 74.64 161.55 74.31 156.08 75.49C149.94 76.81 145.4 79.85 143.79 85.57C143.77 85.64 143.7 85.71 143.61 85.81L145.45 94.07C145.96 94.58 146.47 95.1 146.95 95.65C147.31 96.06 147.75 96.42 148.2 96.76C151.62 99.41 155.69 100.67 160.17 100.89C165.85 101.17 171.26 100.36 175.91 97.22C180.19 94.32 181.77 90.39 181.08 85.73V85.71ZM176.35 89.2C175.97 92.2 173.75 93.96 170.85 95.16C168.01 96.33 164.97 96.77 161.8 96.88C159.7 96.59 157.56 96.44 155.51 96C147.44 94.28 146.93 86.04 151.27 82.15C153.37 80.27 155.9 79.14 158.82 78.88C162.45 78.56 166.09 78.71 169.59 79.78C174.38 81.24 176.92 84.76 176.35 89.21V89.2Z" fill="#231F20"/>
<path d="M183.08 38.78C182.34 38.09 181.53 37.75 180.65 37.75C179.85 37.75 178.82 38.12 177.54 38.86C176.43 39.47 174.73 40.7 172.43 42.54C171.63 41.75 170.82 41.06 170 40.48C169.18 39.9 168.35 39.45 167.53 39.13C166.62 38.73 165.71 38.45 164.8 38.28C163.89 38.11 162.85 38.02 161.69 38.02C157.06 38.02 153.18 39.37 150.05 42.07C146.92 44.77 145.36 48.03 145.36 51.87C145.36 54.28 145.98 56.42 147.23 58.3C148.45 60.14 150.31 61.73 152.78 63.09L154.39 63.66C154.87 63.84 155.33 63.99 155.75 64.1C156.18 64.21 156.62 64.3 157.09 64.38C157.56 64.46 158.01 64.51 158.45 64.54C158.89 64.57 159.32 64.58 159.75 64.58C164.38 64.58 168.25 63.27 171.36 60.64C174.47 58.01 176.03 54.74 176.03 50.83C176.03 49.54 175.84 48.31 175.45 47.15C175.07 45.99 174.49 44.89 173.72 43.86C174.46 43.17 175.03 42.72 175.42 42.51C175.82 42.3 176.16 42.19 176.44 42.19C177.35 42.82 178.15 43.25 178.83 43.46C179.43 43.72 180.02 43.86 180.62 43.86C181.64 43.86 182.48 43.6 183.13 43.07C183.81 42.46 184.15 41.76 184.15 40.97C184.15 40.12 183.78 39.4 183.04 38.79L183.08 38.78ZM166.63 60.21C165.18 62.19 163.12 63.18 160.45 63.18C157.78 63.18 155.77 62.24 154.5 60.35C153.24 58.46 152.6 55.58 152.6 51.69C152.6 47.52 153.25 44.44 154.56 42.46C155.24 41.38 156.09 40.59 157.12 40.1C158.15 39.61 159.38 39.37 160.83 39.37C163.53 39.37 165.53 40.41 166.84 42.5C168.15 44.59 168.8 47.62 168.8 51.61C168.8 55.36 168.08 58.23 166.63 60.21Z" fill="#231F20"/>
<path d="M166.23 78.75L173.62 77.14L174.09 77.04C173.42 76.57 172 75.93 169.83 75.12C167.59 74.28 164.48 73.22 160.52 71.93L156.57 70.68C154.1 69.87 152.5 69.23 151.78 68.74C150.91 68.16 150.56 67.53 150.71 66.84C150.84 66.25 151.31 65.74 152.12 65.29C152.98 64.77 154.28 64.31 156.02 63.91L154.61 63.2C154.61 63.2 154.7 63.26 154.74 63.3C153.18 63.61 151.85 63.94 150.74 64.28C149.63 64.63 148.72 64.99 148 65.36C146.64 66.04 145.84 66.94 145.6 68.05C145.37 69.12 145.73 70.14 146.7 71.09C147.58 71.96 149.04 72.83 151.06 73.7C151.25 73.78 151.44 73.86 151.64 73.95L153.41 74.57C159.14 76.27 163.4 77.67 166.22 78.76L166.23 78.75Z" fill="#231F20"/>
<path d="M31.16 22.02V27.52H30.8V22.02C30.8 19.71 29.55 18.48 27.44 18.48C24.98 18.48 23.5 20.09 23.5 22.45V27.52H23.14V14.14H23.5V20.69C24.06 19.14 25.43 18.15 27.42 18.15C29.71 18.15 31.16 19.5 31.16 22.03V22.02Z" fill="#231F20"/>
<path d="M41.52 21.41V27.52H41.16V25.54C40.56 26.78 39.35 27.58 37.6 27.58C35.51 27.58 34.3 26.53 34.3 24.96C34.3 23.63 35.13 22.45 37.62 22.45H41.16V21.42C41.16 19.47 40.13 18.48 38.2 18.48C36.81 18.48 35.62 19 34.81 19.78L34.56 19.53C35.44 18.68 36.78 18.14 38.19 18.14C40.36 18.14 41.53 19.28 41.53 21.4L41.52 21.41ZM41.16 24.85V22.79H37.6C35.49 22.79 34.66 23.69 34.66 24.94C34.66 26.35 35.74 27.23 37.6 27.23C39.46 27.23 40.54 26.36 41.16 24.85Z" fill="#231F20"/>
<path d="M51.88 21.41V27.52H51.52V25.54C50.92 26.78 49.71 27.58 47.96 27.58C45.87 27.58 44.66 26.53 44.66 24.96C44.66 23.63 45.49 22.45 47.98 22.45H51.52V21.42C51.52 19.47 50.49 18.48 48.56 18.48C47.17 18.48 45.98 19 45.17 19.78L44.92 19.53C45.8 18.68 47.14 18.14 48.55 18.14C50.72 18.14 51.89 19.28 51.89 21.4L51.88 21.41ZM51.52 24.85V22.79H47.96C45.85 22.79 45.02 23.69 45.02 24.94C45.02 26.35 46.1 27.23 47.96 27.23C49.82 27.23 50.9 26.36 51.52 24.85Z" fill="#231F20"/>
<path d="M59.95 18.15V18.51H59.84C57.6 18.51 56.28 20.04 56.28 22.51V27.52H55.92V18.2H56.28V20.62C56.8 19.05 58.07 18.15 59.94 18.15H59.95Z" fill="#231F20"/>
<path d="M61.25 26.3L61.47 26.01C62.14 26.66 63.4 27.24 64.9 27.24C67.12 27.24 68 26.39 68 25.17C68 22.05 61.61 24.18 61.61 20.55C61.61 19.31 62.6 18.15 64.91 18.15C66.07 18.15 67.29 18.53 68 19.11L67.78 19.4C67.04 18.8 65.96 18.5 64.91 18.5C62.85 18.5 61.99 19.4 61.99 20.56C61.99 23.77 68.36 21.66 68.36 25.18C68.36 26.59 67.22 27.6 64.89 27.6C63.37 27.6 61.95 27.06 61.24 26.32L61.25 26.3Z" fill="#231F20"/>
<path d="M75.33 26.91C74.9 27.36 74.17 27.58 73.51 27.58C72.03 27.58 71.25 26.66 71.25 25.29V18.54H69.44V18.2H71.25V16.16H71.61V18.2H74.77V18.54H71.61V25.2C71.61 26.52 72.26 27.24 73.52 27.24C74.12 27.24 74.68 27.04 75.07 26.66L75.32 26.91H75.33Z" fill="#231F20"/>
<path d="M84.92 18.2L79.96 29.02C79.26 30.55 78.43 31.08 77.32 31.08C76.51 31.08 75.8 30.81 75.3 30.25L75.57 29.96C76.08 30.5 76.6 30.74 77.34 30.74C78.24 30.74 78.95 30.32 79.6 28.92L80.25 27.5L75.97 18.21H76.39L80.45 27.12L84.51 18.21H84.93L84.92 18.2Z" fill="#231F20"/>
<path d="M87.1 14.14H87.46V27.52H87.1V14.14Z" fill="#231F20"/>
<path d="M91.33 15.15C91.33 14.9 91.55 14.68 91.8 14.68C92.05 14.68 92.27 14.9 92.27 15.15C92.27 15.4 92.05 15.62 91.8 15.62C91.55 15.62 91.33 15.4 91.33 15.15ZM91.62 18.2H91.98V27.52H91.62V18.2Z" fill="#231F20"/>
<path d="M94.63 26.3L94.85 26.01C95.52 26.66 96.78 27.24 98.28 27.24C100.5 27.24 101.38 26.39 101.38 25.17C101.38 22.05 94.99 24.18 94.99 20.55C94.99 19.31 95.98 18.15 98.29 18.15C99.45 18.15 100.67 18.53 101.38 19.11L101.16 19.4C100.42 18.8 99.34 18.5 98.29 18.5C96.23 18.5 95.37 19.4 95.37 20.56C95.37 23.77 101.74 21.66 101.74 25.18C101.74 26.59 100.6 27.6 98.27 27.6C96.75 27.6 95.33 27.06 94.62 26.32L94.63 26.3Z" fill="#231F20"/>
<path d="M108.71 26.91C108.28 27.36 107.55 27.58 106.89 27.58C105.41 27.58 104.63 26.66 104.63 25.29V18.54H102.82V18.2H104.63V16.16H104.99V18.2H108.15V18.54H104.99V25.2C104.99 26.52 105.64 27.24 106.9 27.24C107.5 27.24 108.06 27.04 108.45 26.66L108.7 26.91H108.71Z" fill="#231F20"/>
<path d="M118.68 22.85H110.38C110.38 25.43 112.22 27.23 114.69 27.23C115.94 27.23 117.13 26.76 117.87 25.79L118.12 26.04C117.29 27.05 116.03 27.57 114.69 27.57C112 27.57 110.03 25.6 110.03 22.84C110.03 20.08 111.87 18.13 114.34 18.13C116.81 18.13 118.67 20.04 118.67 22.75V22.84L118.68 22.85ZM110.38 22.51H118.34C118.21 20.2 116.55 18.49 114.35 18.49C112.15 18.49 110.51 20.2 110.38 22.51Z" fill="#231F20"/>
</g>
<defs>
<clipPath id="clip0_45_2">
<rect width="244" height="116.25" fill="white"/>
</clipPath>
</defs>
</svg>
