<svg width="150" height="150" viewBox="0 0 150 150" fill="none" xmlns="http://www.w3.org/2000/svg">
<path d="M75 0L139.952 37.5V112.5L75 150L10.0481 112.5V37.5L75 0Z" fill="#7E9E86"/>
<path d="M24.4045 45.7887L75 16.5774L125.595 45.7887V104.211L75 133.423L24.4045 104.211V45.7887Z" stroke="white"/>
<path d="M75 84.5C75.25 84.5 75.5 84.75 75.5 85C75.5 85.3125 75.25 85.5 75 85.5C71.375 85.5 68.5 82.625 68.5 79C68.5 78.75 68.6875 78.5 69 78.5C69.25 78.5 69.5 78.75 69.5 79C69.5 82.0625 71.9375 84.5 75 84.5ZM86 79C86 85.125 81.0625 90 75 90C68.875 90 64 85.125 64 79C64 74.375 70.375 64.625 73.375 60.25C74.1875 59.125 75.75 59.125 76.5625 60.25C79.5625 64.625 86 74.375 86 79ZM84 75.125C83.375 73.5625 82.5 71.8125 81.5 70C79.5625 66.5 77.25 63 75.6875 60.8125C75.3125 60.25 74.625 60.25 74.25 60.8125C72.6875 63 70.375 66.5 68.4375 70C67.4375 71.8125 66.5625 73.5625 65.9375 75.125C65.3125 76.75 64.9375 78.0625 64.9375 79C64.9375 84.5625 69.4375 89 74.9375 89C80.5 89 85 84.5625 85 79C85 78.0625 84.625 76.75 84 75.125Z" fill="white"/>
</svg>
