<svg width="150" height="150" viewBox="0 0 150 150" fill="none" xmlns="http://www.w3.org/2000/svg">
<path d="M75 0L139.952 37.5V112.5L75 150L10.0481 112.5V37.5L75 0Z" fill="#7E9E86"/>
<path d="M24.4045 45.7887L75 16.5774L125.595 45.7887V104.211L75 133.423L24.4045 104.211V45.7887Z" stroke="white"/>
<path d="M90.125 86.9375L78.9375 77.4375C78.6875 77.25 78.6875 76.9375 78.875 76.6875C79.0625 76.5 79.375 76.4375 79.5625 76.625L90.8125 86.125C91 86.3125 91 86.625 90.875 86.875C90.6875 87.0625 90.375 87.0625 90.125 86.9375ZM90.125 63.125C90.375 63 90.6875 63 90.875 63.1875C91 63.4375 91 63.75 90.8125 63.9375L71.75 80.0625C72.5 81.1875 73 82.5625 73 84C73 87.875 69.8125 91 66 91C62.125 91 59 87.875 59 84C59 80.1875 62.125 77 66 77C68 77 69.8125 77.875 71.125 79.25L76.125 75L71.125 70.8125C69.8125 72.1875 68 73 66 73C62.125 73 59 69.875 59 66C59 62.1875 62.125 59 66 59C69.8125 59 73 62.1875 73 66C73 67.5 72.5 68.875 71.75 70L76.875 74.375L90.125 63.125ZM60 66C60 69.3125 62.625 72 66 72C69.3125 72 72 69.3125 72 66C72 62.6875 69.3125 60 66 60C62.625 60 60 62.6875 60 66ZM66 90C69.3125 90 72 87.3125 72 84C72 80.6875 69.3125 78 66 78C62.625 78 60 80.6875 60 84C60 87.3125 62.625 90 66 90Z" fill="white"/>
</svg>
